PathFileType	4	(X/Y/Z)	 s10c0303.trc
DataRate	CameraRate	NumFrames	NumMarkers	Units	OrigDataRate	OrigDataStartFrame	OrigNumFrames
200	200	7	50	mm	200	1501	2000
Frame#	Time	racr			lacr			c7			jug			rlel			rdr			llel			ldr			s2			lic			ric			lasi			rasi			rpsi			lpsi			rgt			lgt			rth1			rth2			rth3			rth4			rlfc			rmfc			rsh1			rsh2			rsh3			rsh4			rlmal			rmmal			rcal			rtoe			rmt5			lth1			lth2			lth4			lth3			llfc			lmfc			llmal			lmmal			lcal			lmt5			lsh1			lsh2			lsh3			lsh4			ltoe			SBIKE			LBIKE			RBIKE			
		X1	Y1	Z1	X2	Y2	Z2	X3	Y3	Z3	X4	Y4	Z4	X5	Y5	Z5	X6	Y6	Z6	X7	Y7	Z7	X8	Y8	Z8	X9	Y9	Z9	X10	Y10	Z10	X11	Y11	Z11	X12	Y12	Z12	X13	Y13	Z13	X14	Y14	Z14	X15	Y15	Z15	X16	Y16	Z16	X17	Y17	Z17	X18	Y18	Z18	X19	Y19	Z19	X20	Y20	Z20	X21	Y21	Z21	X22	Y22	Z22	X23	Y23	Z23	X24	Y24	Z24	X25	Y25	Z25	X26	Y26	Z26	X27	Y27	Z27	X28	Y28	Z28	X29	Y29	Z29	X30	Y30	Z30	X31	Y31	Z31	X32	Y32	Z32	X33	Y33	Z33	X34	Y34	Z34	X35	Y35	Z35	X36	Y36	Z36	X37	Y37	Z37	X38	Y38	Z38	X39	Y39	Z39	X40	Y40	Z40	X41	Y41	Z41	X42	Y42	Z42	X43	Y43	Z43	X44	Y44	Z44	X45	Y45	Z45	X46	Y46	Z46	X47	Y47	Z47	X48	Y48	Z48	X49	Y49	Z49	X50	Y50	Z50	
1501	7.5050	641.740326	1320.359719	-49.819759	713.207623	1289.943811	-336.851416	661.314836	1328.054565	-192.686371	606.896008	1192.844372	-185.491087	568.338000	1071.168095	52.827623	646.115497	872.762789	-15.660356	599.968950	1060.434056	-487.082411	665.328212	882.543937	-375.701206	125.146963	1150.871144	-191.373844	267.041784	1145.049799	-359.601295	315.790001	1134.229593	-74.868864	283.509580	1060.905496	-332.559263	315.832512	1054.505219	-80.209958	184.072593	1197.467274	-146.706007	176.355777	1210.229240	-255.725638	208.360945	1045.225374	-12.296854	154.530410	1027.790498	-386.822324	261.258378	901.567523	9.253997	315.531384	831.874223	-5.393726	327.564262	747.513305	-8.387474	347.251247	848.525605	-15.320600	359.987789	643.708641	-23.135483	357.596629	634.396254	-138.539302	256.041950	588.577337	4.048226	208.084389	515.371899	-12.191497	131.747669	476.007446	-21.303960	231.806721	495.402715	-35.363128	52.051061	408.456520	-40.509483	80.847659	402.727212	-120.023234	25.422440	451.878624	-91.336300	76.878230	212.839170	-99.677188	25.630012	280.422777	-37.126479	243.138226	928.170695	-403.716677	325.471228	901.521187	-394.461553	344.538891	931.523804	-385.971993	384.034306	834.992224	-390.202020	480.057163	766.150360	-371.321960	481.438731	758.050760	-249.660746	260.876439	443.862338	-373.495648	269.977614	447.635846	-291.297498	194.917183	418.999288	-332.439685	358.397668	342.208052	-383.172304	399.784827	671.023269	-400.023764	379.775386	586.312270	-390.531300	316.100554	523.995775	-389.028092	404.503424	575.344923	-363.786043	432.501494	362.900741	-325.669910	-203.836927	831.291135	-224.663832	-78.136534	81.989885	-423.700319	-102.602268	80.737965	-24.449375	
1502	7.5100	642.384916	1321.047575	-48.575068	712.161505	1290.552340	-335.546990	661.199697	1328.507495	-191.712846	606.511709	1193.350935	-183.953429	569.810241	1071.451422	53.948126	646.019120	872.865483	-15.475244	599.152099	1060.995979	-485.587058	665.325811	882.621978	-375.831580	125.123962	1150.364234	-193.931800	268.561071	1144.269602	-361.490786	313.958713	1134.807840	-75.551339	284.684555	1060.578945	-333.623056	315.180617	1054.959536	-81.264243	183.224151	1197.948658	-149.474644	176.571891	1209.825442	-258.468959	207.763218	1045.632662	-14.846505	154.471108	1026.969808	-388.416185	262.976681	903.059931	8.043894	318.611199	834.518139	-5.909150	332.411832	750.402262	-9.136893	350.186034	851.581673	-15.326489	367.309440	647.504892	-23.707494	365.443810	639.233963	-139.693923	263.145791	592.833059	4.016265	213.745308	520.968950	-12.632551	136.280385	483.627975	-21.393627	236.158463	501.055668	-36.735632	54.532307	417.931801	-40.507998	82.972661	411.769748	-120.143372	28.803222	461.999618	-91.138194	74.724242	221.824660	-99.740156	25.121500	290.567469	-37.220614	241.916994	925.748901	-405.591839	323.208386	896.297143	-395.846942	343.285768	925.748586	-387.340872	379.479779	827.863345	-391.365640	472.919725	754.851272	-372.046146	475.174900	746.847939	-251.531478	259.126464	430.068430	-373.444784	270.960218	436.512827	-286.093867	193.257850	404.326303	-332.335737	358.504756	331.253280	-383.261691	394.430648	658.881183	-402.604895	375.684071	573.088292	-390.177153	313.207859	509.715410	-388.766301	400.217109	562.980877	-362.970746	432.107261	353.732173	-325.688476	-203.814851	831.313281	-224.680933	-78.120851	81.981374	-423.692907	-102.607589	80.748998	-24.447529	
1503	7.5150	642.926541	1321.784796	-47.296326	711.061777	1291.315093	-334.387681	660.948196	1328.996003	-190.821898	606.415256	1193.724704	-182.416258	571.200458	1071.718879	55.307099	645.616550	873.434663	-15.744103	598.400763	1061.544416	-483.994639	665.382678	882.637668	-375.593270	125.816372	1150.087578	-197.139405	270.278464	1143.198530	-363.120080	312.158381	1135.299311	-76.424187	285.724778	1059.904134	-334.738445	314.450274	1054.975487	-82.652202	182.289381	1198.253616	-151.231612	177.139488	1209.124990	-261.240638	207.271386	1045.845649	-16.743543	154.678131	1025.776468	-389.775444	264.395385	904.517149	6.790117	320.926836	836.903088	-6.884151	336.646775	753.069549	-9.935170	353.049658	854.808046	-14.787700	374.449775	651.189642	-24.342260	371.703657	645.000275	-140.402610	270.415466	597.064508	3.933439	219.244119	526.385232	-13.266132	140.979181	490.863798	-21.507955	240.825745	506.707421	-37.936659	57.094963	427.485021	-40.433475	86.835283	420.955076	-120.255628	32.182892	472.079578	-91.135481	73.379521	231.097357	-99.864514	25.214495	300.751566	-37.255377	240.832494	923.034525	-407.286833	320.985524	890.836516	-397.175837	341.889584	919.164046	-387.686233	374.701328	820.522413	-392.388296	465.511580	743.143846	-372.525126	468.654261	735.292120	-253.500753	257.069071	416.547446	-373.406436	265.380135	422.669167	-291.399757	191.554065	390.838999	-333.717776	357.984185	320.141867	-383.394867	388.833119	644.540748	-401.718693	371.243108	559.690624	-389.551257	310.470292	494.701983	-387.626240	395.540870	550.513919	-361.848510	431.143466	344.515229	-325.928880	-203.778706	831.321558	-224.673064	-78.118119	81.959625	-423.681445	-102.591212	80.716153	-24.454796	
1504	7.5200	643.542983	1322.558689	-45.769634	709.815992	1292.129134	-333.399358	660.604488	1329.510007	-190.020320	606.598747	1193.982866	-180.834877	573.021790	1071.987023	56.508125	645.558642	873.518586	-15.606920	597.675503	1062.136183	-482.379735	665.360964	882.596546	-375.365636	125.980659	1149.571503	-199.764818	272.175392	1141.850184	-364.494300	310.233411	1135.534072	-77.496094	286.780358	1058.735251	-335.909539	313.638733	1054.971022	-84.329949	181.561323	1198.414730	-153.341019	177.974506	1207.075302	-262.711931	206.691934	1046.004763	-18.602745	154.922592	1024.386868	-391.464685	265.902360	905.832086	5.722875	323.765543	839.187301	-7.309571	341.014575	755.700071	-10.560691	355.690920	857.679705	-14.686221	381.450449	655.038228	-24.766887	377.925658	650.027199	-141.463333	277.476391	601.338341	3.666395	224.997900	532.203283	-13.592231	145.528957	498.178720	-21.297002	245.393555	512.177956	-39.214887	59.777651	437.271320	-40.418282	89.770710	429.992926	-120.207506	35.529790	482.292528	-91.241069	72.866786	240.575064	-99.860058	25.841029	311.118981	-37.308072	239.825697	920.037023	-408.870039	318.695262	884.960961	-398.449970	340.674739	912.587470	-388.941237	369.821644	812.724551	-393.328497	457.654192	731.172062	-372.846755	462.719176	723.714119	-254.972306	254.683766	403.371093	-373.625893	265.426337	410.618646	-285.798899	189.236279	376.784488	-333.411325	356.913839	309.193474	-383.512804	383.119134	631.405978	-402.525292	366.362458	546.492570	-388.935390	306.688033	480.149534	-387.368525	390.422943	537.897958	-360.513199	429.954577	335.273438	-326.645206	-203.759854	831.296548	-224.692515	-78.131741	81.956946	-423.684342	-102.601126	80.720441	-24.456076	
1505	7.5250	644.149437	1323.224126	-44.189134	708.419612	1293.183557	-332.822227	660.168277	1330.032289	-189.202911	606.807889	1194.199608	-179.315303	574.538674	1072.238561	57.818367	645.519646	873.637806	-15.488392	596.980426	1062.702936	-480.776937	665.802897	883.153090	-375.911689	126.099386	1148.780958	-202.288382	274.325798	1140.361981	-365.663348	308.380255	1135.449580	-78.544255	287.825304	1057.276695	-337.182958	312.268721	1054.293634	-87.299696	180.605765	1197.706017	-156.031942	178.587754	1205.824391	-265.176120	206.614463	1045.653228	-20.263855	155.141637	1022.725518	-392.996410	267.243849	907.045474	4.719912	326.416811	841.364819	-7.683361	345.048875	758.234160	-11.090541	358.107266	860.337880	-14.766440	388.162091	658.804441	-25.212062	383.546631	654.804389	-142.591269	284.265304	605.698275	3.257311	230.217261	537.868390	-14.269828	148.359699	506.923807	-22.296093	249.854360	517.774414	-40.481099	62.523521	447.137731	-40.418030	91.999701	439.645657	-120.687988	38.923307	492.502770	-91.256863	73.248495	250.440799	-99.809904	27.074487	321.516356	-37.296513	239.220615	916.824299	-410.545817	316.411847	878.804947	-399.546543	339.365868	905.744641	-390.496154	364.809842	804.727512	-394.130094	449.598829	719.265098	-373.110389	453.903710	711.197443	-257.428816	251.749148	390.583134	-373.809403	262.372278	398.214612	-286.101257	186.489637	363.375842	-333.699079	355.273521	298.235414	-383.584083	376.938986	617.920572	-402.319824	361.213449	532.835100	-387.744404	302.660230	465.934254	-387.043557	384.850454	525.285321	-359.048700	427.829141	325.641668	-326.742326	-203.764072	831.292253	-224.733503	-78.129384	81.961448	-423.690557	-102.582308	80.719241	-24.450055	
1506	7.5300	644.756171	1324.011173	-42.551015	707.076355	1294.136562	-332.101938	659.718619	1330.526651	-188.479732	607.380277	1194.259614	-177.716033	576.018535	1072.676716	59.162077	645.499229	873.803570	-15.433703	596.264661	1063.249997	-479.233712	665.789291	883.092502	-375.663580	126.365823	1147.752673	-204.914184	276.553164	1138.781547	-366.712602	306.503042	1135.247231	-79.707050	288.978016	1055.583927	-338.520651	311.390866	1054.082656	-88.441053	179.709671	1196.872478	-158.381445	178.923525	1204.430361	-267.700826	206.654956	1044.718721	-22.834393	155.624631	1020.767779	-394.524521	268.427865	908.057981	3.853634	328.837616	843.356652	-8.017820	348.934163	760.560727	-11.498658	360.398824	862.757148	-14.939766	394.774485	662.528186	-25.510948	389.803803	660.093879	-143.175605	290.731216	610.002661	2.954871	235.285281	543.558094	-14.905905	155.280059	512.438125	-22.802044	254.163735	523.510352	-41.645196	65.547218	457.188852	-40.386883	94.594424	448.963195	-120.654857	42.346084	502.775145	-91.244493	74.304854	260.374493	-99.861058	28.877501	331.917811	-37.159268	238.497967	913.300692	-411.897585	314.048402	872.347123	-400.507836	338.039464	898.439179	-391.540156	359.767458	796.534136	-394.785007	441.237459	707.416671	-373.265127	446.592756	699.104717	-259.149941	248.323110	378.068277	-373.933433	257.162016	385.519687	-288.541644	183.511966	350.361817	-333.765695	353.041937	287.472729	-383.712012	370.412752	604.668426	-402.175495	355.628309	519.609067	-386.759854	297.644209	452.234896	-387.449409	378.841141	512.732935	-357.577886	425.285302	315.828894	-326.898065	-203.759675	831.296763	-224.757824	-78.130428	81.940877	-423.709081	-102.600860	80.727099	-24.459098	
1507	7.5350	645.411819	1324.726530	-40.951246	705.732196	1295.119319	-331.577693	659.267721	1330.981608	-187.774638	608.071868	1194.242931	-176.161173	577.576115	1073.083444	60.546006	645.547334	873.998927	-15.359325	595.578967	1063.790043	-477.712861	665.526547	882.740123	-374.936054	126.399049	1146.532315	-207.429568	278.811301	1136.754409	-367.587316	304.625376	1134.762100	-80.866159	290.301801	1053.774809	-339.979118	310.418262	1053.600862	-90.078487	178.977102	1195.889990	-160.291269	179.129878	1203.117917	-270.092463	206.372468	1044.099252	-24.885602	156.115252	1018.338814	-395.907695	269.450731	908.973783	3.074144	331.116143	845.263037	-8.367138	352.539027	762.749371	-11.810421	362.387325	865.489384	-15.152366	401.093752	666.170708	-25.741290	394.666876	664.349246	-143.936163	297.032884	614.549327	2.440053	239.735411	549.027793	-15.883578	159.693170	519.699355	-23.000777	258.088888	529.274726	-43.057419	68.799197	467.228586	-40.353814	97.425057	458.447118	-120.700592	45.939059	512.909083	-91.355376	76.316509	270.568431	-99.801680	31.375236	342.353189	-37.088518	237.730128	909.297085	-412.970688	311.664789	865.576744	-401.374493	336.654315	890.896428	-392.566935	354.562848	788.081820	-395.106663	432.711114	695.573532	-373.205189	438.615528	686.823802	-260.736549	244.549171	366.312468	-374.524214	253.204078	373.146640	-288.668500	180.053378	338.064411	-333.955578	350.320662	276.705924	-383.809721	363.651684	592.528198	-402.894252	349.742580	506.832139	-385.733052	293.510854	438.117303	-386.364152	372.578422	500.590773	-356.098450	422.277372	306.005359	-327.057298	-203.776607	831.281172	-224.769436	-78.136299	81.951573	-423.680440	-102.581372	80.708409	-24.454456	
